<svg width="56" height="56" viewBox="0 0 56 56" fill="none" xmlns="http://www.w3.org/2000/svg">
<g clip-path="url(#clip0_700_2)">
<path d="M9.49767 33.2272C8.83249 34.0159 7.65383 34.1161 6.86506 33.4509C6.0763 32.7857 5.97611 31.6071 6.64129 30.8183C7.30647 30.0296 8.48512 29.9294 9.27389 30.5946C10.0627 31.2597 10.1628 32.4384 9.49767 33.2272Z" fill="white" stroke="#1B1727" stroke-width="2" stroke-linecap="round" stroke-linejoin="round"/>
<path d="M10.3267 38.3079C10.2418 38.2363 10.1149 38.247 10.0432 38.332C9.97163 38.4169 9.98241 38.5438 10.0673 38.6154C10.1523 38.687 10.2792 38.6762 10.3508 38.5913C10.4224 38.5064 10.4116 38.3795 10.3267 38.3079Z" fill="white" stroke="#1B1727" stroke-width="2"/>
<path d="M15.5181 17.1834C13.3532 17.5377 9.78877 19.1087 8.90931 25.5139C8.90931 25.5139 11.5412 22.4116 14.3329 23.9291" fill="white"/>
<path d="M15.5181 17.1834C13.3532 17.5377 9.78877 19.1087 8.90931 25.5139C8.90931 25.5139 11.5412 22.4116 14.3329 23.9291" stroke="#1B1727" stroke-width="2" stroke-linecap="round" stroke-linejoin="round"/>
<path d="M36.6804 17.7556C37.1979 19.6701 36.7469 22.0944 33.5083 24.6655C33.5083 24.6655 34.641 21.3899 32.6706 19.6021" fill="white"/>
<path d="M36.6804 17.7556C37.1979 19.6701 36.7469 22.0944 33.5083 24.6655C33.5083 24.6655 34.641 21.3899 32.6706 19.6021" stroke="#1B1727" stroke-width="2" stroke-linecap="round" stroke-linejoin="round"/>
<path d="M28.9654 22.5268C33.4652 16.0504 42.6507 17.3389 43.7877 16.4775C45.1194 15.4676 43.4396 13.8057 42.1012 13.1452C41.3057 12.7562 40.5713 12.2534 39.9209 11.6525C39.9209 11.6525 41.8782 2.61754 31.1897 4.0108C20.5012 5.40405 10.5452 18.8222 16.289 30.8247C22.0329 42.8272 30.7276 43.7831 30.7276 43.7831C30.7276 43.7831 31.0924 49.7967 36.7843 51.7725C36.7843 51.7725 33.2292 42.9346 41.5599 37.8794C41.5599 37.8794 38.54 35.5555 32.8823 40.2636C32.8823 40.2636 24.701 37.7935 26.8938 27.5729" fill="white"/>
<path d="M28.9654 22.5268C33.4652 16.0504 42.6507 17.3389 43.7877 16.4775C45.1194 15.4676 43.4396 13.8057 42.1012 13.1452C41.3057 12.7562 40.5713 12.2534 39.9209 11.6525C39.9209 11.6525 41.8782 2.61754 31.1897 4.0108C20.5012 5.40405 10.5452 18.8222 16.289 30.8247C22.0329 42.8272 30.7276 43.7831 30.7276 43.7831C30.7276 43.7831 31.0924 49.7967 36.7843 51.7725C36.7843 51.7725 33.2292 42.9346 41.5599 37.8794C41.5599 37.8794 38.54 35.5555 32.8823 40.2636C32.8823 40.2636 24.701 37.7935 26.8938 27.5729" stroke="#1B1727" stroke-width="2" stroke-linecap="round" stroke-linejoin="round"/>
<path d="M34.4395 12.9323C34.856 13.2835 35.4783 13.2306 35.8295 12.8141C36.1807 12.3977 36.1278 11.7753 35.7113 11.4241C35.2949 11.0729 34.6726 11.1258 34.3214 11.5423C33.9701 11.9587 34.023 12.5811 34.4395 12.9323Z" fill="#0D0A18" stroke="#1B1727" stroke-width="0.269052"/>
<path d="M26.0342 21.4995C26.0342 21.4995 34.7151 22.9412 30.6495 31.475C30.6495 31.475 29.8984 25.3584 24.3405 27.6843" fill="white"/>
<path d="M26.0342 21.4995C26.0342 21.4995 34.7151 22.9412 30.6495 31.475C30.6495 31.475 29.8984 25.3584 24.3405 27.6843" stroke="#1B1727" stroke-width="2" stroke-linecap="round" stroke-linejoin="round"/>
<path d="M27.5354 8.03894C24.8851 9.06148 22.5771 10.8111 20.8767 13.0867Z" fill="white"/>
<path d="M27.5354 8.03894C24.8851 9.06148 22.5771 10.8111 20.8767 13.0867" stroke="#1B1727" stroke-width="0.538104" stroke-linecap="round" stroke-linejoin="round"/>
</g>
<defs>
<clipPath id="clip0_700_2">
<rect width="56" height="56" fill="white"/>
</clipPath>
</defs>
</svg>
